<mxfile host="app.diagrams.net" modified="2024-03-31T06:29:32.017Z" agent="Mozilla/5.0 (Windows NT 10.0; Win64; x64) AppleWebKit/537.36 (KHTML, like Gecko) Chrome/123.0.0.0 Safari/537.36 Edg/123.0.0.0" version="24.2.1" etag="uFt-zR_MFw5Lr4c3scIE" type="github">
  <diagram name="第 1 页" id="7E3xg20voF36uwwBsJ15">
    <mxGraphModel>
      <root>
        <mxCell id="0" />
        <mxCell id="1" parent="0" />
      </root>
    </mxGraphModel>
  </diagram>
</mxfile>
